<svg xmlns="http://www.w3.org/2000/svg" version="1.1" xmlns:xlink="http://www.w3.org/1999/xlink" xmlns:svgjs="http://svgjs.com/svgjs" width="1440" height="560" preserveAspectRatio="none" viewBox="0 0 1440 560"><g mask="url(&quot;#SvgjsMask5955&quot;)" fill="none"><rect width="1440" height="560" x="0" y="0" fill="url(#SvgjsLinearGradient5956)"></rect><path d="M50.99 226.53L135.86 275.53L135.86 373.53L50.99 422.53L-33.88 373.53L-33.88 275.53zM135.86 373.53L220.74 422.53L220.74 520.53L135.86 569.53L50.99 520.53L50.99 422.53zM50.99 520.53L135.86 569.53L135.86 667.53L50.99 716.53L-33.88 667.53L-33.88 569.53zM220.74 -67.47L305.61 -18.47L305.61 79.53L220.74 128.53L135.86 79.53L135.86 -18.47zM220.74 520.53L305.61 569.53L305.61 667.53L220.74 716.53L135.86 667.53L135.86 569.53zM390.48 226.53L475.35 275.53L475.35 373.53L390.48 422.53L305.61 373.53L305.61 275.53zM645.1 79.53L729.97 128.53L729.97 226.53L645.1 275.53L560.23 226.53L560.23 128.53zM560.23 226.53L645.1 275.53L645.1 373.53L560.23 422.53L475.35 373.53L475.35 275.53zM560.23 520.53L645.1 569.53L645.1 667.53L560.23 716.53L475.35 667.53L475.35 569.53zM729.97 226.53L814.85 275.53L814.85 373.53L729.97 422.53L645.1 373.53L645.1 275.53zM984.59 79.53L1069.46 128.53L1069.46 226.53L984.59 275.53L899.72 226.53L899.72 128.53zM899.72 226.53L984.59 275.53L984.59 373.53L899.72 422.53L814.85 373.53L814.85 275.53zM1069.46 -67.47L1154.34 -18.47L1154.34 79.53L1069.46 128.53L984.59 79.53L984.59 -18.47zM1154.34 79.53L1239.21 128.53L1239.21 226.53L1154.34 275.53L1069.46 226.53L1069.46 128.53zM1154.34 373.53L1239.21 422.53L1239.21 520.53L1154.34 569.53L1069.46 520.53L1069.46 422.53zM1324.08 79.53L1408.96 128.53L1408.96 226.53L1324.08 275.53L1239.21 226.53L1239.21 128.53zM1239.21 226.53L1324.08 275.53L1324.08 373.53L1239.21 422.53L1154.34 373.53L1154.34 275.53zM1239.21 520.53L1324.08 569.53L1324.08 667.53L1239.21 716.53L1154.34 667.53L1154.34 569.53zM1493.83 373.53L1578.7 422.53L1578.7 520.53L1493.83 569.53L1408.96 520.53L1408.96 422.53zM1408.96 520.53L1493.83 569.53L1493.83 667.53L1408.96 716.53L1324.08 667.53L1324.08 569.53z" stroke="url(#SvgjsLinearGradient5957)" stroke-width="2"></path><path d="M41.19 226.53 a9.8 9.8 0 1 0 19.6 0 a9.8 9.8 0 1 0 -19.6 0zM126.06 275.53 a9.8 9.8 0 1 0 19.6 0 a9.8 9.8 0 1 0 -19.6 0zM126.06 373.53 a9.8 9.8 0 1 0 19.6 0 a9.8 9.8 0 1 0 -19.6 0zM41.19 422.53 a9.8 9.8 0 1 0 19.6 0 a9.8 9.8 0 1 0 -19.6 0zM-43.68 373.53 a9.8 9.8 0 1 0 19.6 0 a9.8 9.8 0 1 0 -19.6 0zM-43.68 275.53 a9.8 9.8 0 1 0 19.6 0 a9.8 9.8 0 1 0 -19.6 0zM210.94 422.53 a9.8 9.8 0 1 0 19.6 0 a9.8 9.8 0 1 0 -19.6 0zM210.94 520.53 a9.8 9.8 0 1 0 19.6 0 a9.8 9.8 0 1 0 -19.6 0zM126.06 569.53 a9.8 9.8 0 1 0 19.6 0 a9.8 9.8 0 1 0 -19.6 0zM41.19 520.53 a9.8 9.8 0 1 0 19.6 0 a9.8 9.8 0 1 0 -19.6 0zM126.06 667.53 a9.8 9.8 0 1 0 19.6 0 a9.8 9.8 0 1 0 -19.6 0zM41.19 716.53 a9.8 9.8 0 1 0 19.6 0 a9.8 9.8 0 1 0 -19.6 0zM-43.68 667.53 a9.8 9.8 0 1 0 19.6 0 a9.8 9.8 0 1 0 -19.6 0zM-43.68 569.53 a9.8 9.8 0 1 0 19.6 0 a9.8 9.8 0 1 0 -19.6 0zM210.94 -67.47 a9.8 9.8 0 1 0 19.6 0 a9.8 9.8 0 1 0 -19.6 0zM295.81 -18.47 a9.8 9.8 0 1 0 19.6 0 a9.8 9.8 0 1 0 -19.6 0zM295.81 79.53 a9.8 9.8 0 1 0 19.6 0 a9.8 9.8 0 1 0 -19.6 0zM210.94 128.53 a9.8 9.8 0 1 0 19.6 0 a9.8 9.8 0 1 0 -19.6 0zM126.06 79.53 a9.8 9.8 0 1 0 19.6 0 a9.8 9.8 0 1 0 -19.6 0zM126.06 -18.47 a9.8 9.8 0 1 0 19.6 0 a9.8 9.8 0 1 0 -19.6 0zM295.81 569.53 a9.8 9.8 0 1 0 19.6 0 a9.8 9.8 0 1 0 -19.6 0zM295.81 667.53 a9.8 9.8 0 1 0 19.6 0 a9.8 9.8 0 1 0 -19.6 0zM210.94 716.53 a9.8 9.8 0 1 0 19.6 0 a9.8 9.8 0 1 0 -19.6 0zM380.68 226.53 a9.8 9.8 0 1 0 19.6 0 a9.8 9.8 0 1 0 -19.6 0zM465.55 275.53 a9.8 9.8 0 1 0 19.6 0 a9.8 9.8 0 1 0 -19.6 0zM465.55 373.53 a9.8 9.8 0 1 0 19.6 0 a9.8 9.8 0 1 0 -19.6 0zM380.68 422.53 a9.8 9.8 0 1 0 19.6 0 a9.8 9.8 0 1 0 -19.6 0zM295.81 373.53 a9.8 9.8 0 1 0 19.6 0 a9.8 9.8 0 1 0 -19.6 0zM295.81 275.53 a9.8 9.8 0 1 0 19.6 0 a9.8 9.8 0 1 0 -19.6 0zM635.3 79.53 a9.8 9.8 0 1 0 19.6 0 a9.8 9.8 0 1 0 -19.6 0zM720.17 128.53 a9.8 9.8 0 1 0 19.6 0 a9.8 9.8 0 1 0 -19.6 0zM720.17 226.53 a9.8 9.8 0 1 0 19.6 0 a9.8 9.8 0 1 0 -19.6 0zM635.3 275.53 a9.8 9.8 0 1 0 19.6 0 a9.8 9.8 0 1 0 -19.6 0zM550.43 226.53 a9.8 9.8 0 1 0 19.6 0 a9.8 9.8 0 1 0 -19.6 0zM550.43 128.53 a9.8 9.8 0 1 0 19.6 0 a9.8 9.8 0 1 0 -19.6 0zM635.3 373.53 a9.8 9.8 0 1 0 19.6 0 a9.8 9.8 0 1 0 -19.6 0zM550.43 422.53 a9.8 9.8 0 1 0 19.6 0 a9.8 9.8 0 1 0 -19.6 0zM550.43 520.53 a9.8 9.8 0 1 0 19.6 0 a9.8 9.8 0 1 0 -19.6 0zM635.3 569.53 a9.8 9.8 0 1 0 19.6 0 a9.8 9.8 0 1 0 -19.6 0zM635.3 667.53 a9.8 9.8 0 1 0 19.6 0 a9.8 9.8 0 1 0 -19.6 0zM550.43 716.53 a9.8 9.8 0 1 0 19.6 0 a9.8 9.8 0 1 0 -19.6 0zM465.55 667.53 a9.8 9.8 0 1 0 19.6 0 a9.8 9.8 0 1 0 -19.6 0zM465.55 569.53 a9.8 9.8 0 1 0 19.6 0 a9.8 9.8 0 1 0 -19.6 0zM805.05 275.53 a9.8 9.8 0 1 0 19.6 0 a9.8 9.8 0 1 0 -19.6 0zM805.05 373.53 a9.8 9.8 0 1 0 19.6 0 a9.8 9.8 0 1 0 -19.6 0zM720.17 422.53 a9.8 9.8 0 1 0 19.6 0 a9.8 9.8 0 1 0 -19.6 0zM974.79 79.53 a9.8 9.8 0 1 0 19.6 0 a9.8 9.8 0 1 0 -19.6 0zM1059.66 128.53 a9.8 9.8 0 1 0 19.6 0 a9.8 9.8 0 1 0 -19.6 0zM1059.66 226.53 a9.8 9.8 0 1 0 19.6 0 a9.8 9.8 0 1 0 -19.6 0zM974.79 275.53 a9.8 9.8 0 1 0 19.6 0 a9.8 9.8 0 1 0 -19.6 0zM889.92 226.53 a9.8 9.8 0 1 0 19.6 0 a9.8 9.8 0 1 0 -19.6 0zM889.92 128.53 a9.8 9.8 0 1 0 19.6 0 a9.8 9.8 0 1 0 -19.6 0zM974.79 373.53 a9.8 9.8 0 1 0 19.6 0 a9.8 9.8 0 1 0 -19.6 0zM889.92 422.53 a9.8 9.8 0 1 0 19.6 0 a9.8 9.8 0 1 0 -19.6 0zM1059.66 -67.47 a9.8 9.8 0 1 0 19.6 0 a9.8 9.8 0 1 0 -19.6 0zM1144.54 -18.47 a9.8 9.8 0 1 0 19.6 0 a9.8 9.8 0 1 0 -19.6 0zM1144.54 79.53 a9.8 9.8 0 1 0 19.6 0 a9.8 9.8 0 1 0 -19.6 0zM974.79 -18.47 a9.8 9.8 0 1 0 19.6 0 a9.8 9.8 0 1 0 -19.6 0zM1229.41 128.53 a9.8 9.8 0 1 0 19.6 0 a9.8 9.8 0 1 0 -19.6 0zM1229.41 226.53 a9.8 9.8 0 1 0 19.6 0 a9.8 9.8 0 1 0 -19.6 0zM1144.54 275.53 a9.8 9.8 0 1 0 19.6 0 a9.8 9.8 0 1 0 -19.6 0zM1144.54 373.53 a9.8 9.8 0 1 0 19.6 0 a9.8 9.8 0 1 0 -19.6 0zM1229.41 422.53 a9.8 9.8 0 1 0 19.6 0 a9.8 9.8 0 1 0 -19.6 0zM1229.41 520.53 a9.8 9.8 0 1 0 19.6 0 a9.8 9.8 0 1 0 -19.6 0zM1144.54 569.53 a9.8 9.8 0 1 0 19.6 0 a9.8 9.8 0 1 0 -19.6 0zM1059.66 520.53 a9.8 9.8 0 1 0 19.6 0 a9.8 9.8 0 1 0 -19.6 0zM1059.66 422.53 a9.8 9.8 0 1 0 19.6 0 a9.8 9.8 0 1 0 -19.6 0zM1314.28 79.53 a9.8 9.8 0 1 0 19.6 0 a9.8 9.8 0 1 0 -19.6 0zM1399.16 128.53 a9.8 9.8 0 1 0 19.6 0 a9.8 9.8 0 1 0 -19.6 0zM1399.16 226.53 a9.8 9.8 0 1 0 19.6 0 a9.8 9.8 0 1 0 -19.6 0zM1314.28 275.53 a9.8 9.8 0 1 0 19.6 0 a9.8 9.8 0 1 0 -19.6 0zM1314.28 373.53 a9.8 9.8 0 1 0 19.6 0 a9.8 9.8 0 1 0 -19.6 0zM1314.28 569.53 a9.8 9.8 0 1 0 19.6 0 a9.8 9.8 0 1 0 -19.6 0zM1314.28 667.53 a9.8 9.8 0 1 0 19.6 0 a9.8 9.8 0 1 0 -19.6 0zM1229.41 716.53 a9.8 9.8 0 1 0 19.6 0 a9.8 9.8 0 1 0 -19.6 0zM1144.54 667.53 a9.8 9.8 0 1 0 19.6 0 a9.8 9.8 0 1 0 -19.6 0zM1484.03 373.53 a9.8 9.8 0 1 0 19.6 0 a9.8 9.8 0 1 0 -19.6 0zM1568.9 422.53 a9.8 9.8 0 1 0 19.6 0 a9.8 9.8 0 1 0 -19.6 0zM1568.9 520.53 a9.8 9.8 0 1 0 19.6 0 a9.8 9.8 0 1 0 -19.6 0zM1484.03 569.53 a9.8 9.8 0 1 0 19.6 0 a9.8 9.8 0 1 0 -19.6 0zM1399.16 520.53 a9.8 9.8 0 1 0 19.6 0 a9.8 9.8 0 1 0 -19.6 0zM1399.16 422.53 a9.8 9.8 0 1 0 19.6 0 a9.8 9.8 0 1 0 -19.6 0zM1484.03 667.53 a9.8 9.8 0 1 0 19.6 0 a9.8 9.8 0 1 0 -19.6 0zM1399.16 716.53 a9.8 9.8 0 1 0 19.6 0 a9.8 9.8 0 1 0 -19.6 0z" fill="url(#SvgjsLinearGradient5957)"></path><path d="M109.42 378.5L183.9 421.5L183.9 507.5L109.42 550.5L34.94 507.5L34.94 421.5zM258.38 378.5L332.86 421.5L332.86 507.5L258.38 550.5L183.9 507.5L183.9 421.5zM183.9 507.5L258.38 550.5L258.38 636.5L183.9 679.5L109.42 636.5L109.42 550.5zM407.34 120.5L481.82 163.5L481.82 249.5L407.34 292.5L332.86 249.5L332.86 163.5zM332.86 249.5L407.34 292.5L407.34 378.5L332.86 421.5L258.38 378.5L258.38 292.5zM407.34 378.5L481.82 421.5L481.82 507.5L407.34 550.5L332.86 507.5L332.86 421.5zM332.86 507.5L407.34 550.5L407.34 636.5L332.86 679.5L258.38 636.5L258.38 550.5zM481.82 -8.5L556.3 34.5L556.3 120.5L481.82 163.5L407.34 120.5L407.34 34.5zM556.3 120.5L630.78 163.5L630.78 249.5L556.3 292.5L481.82 249.5L481.82 163.5zM630.78 -8.5L705.26 34.5L705.26 120.5L630.78 163.5L556.3 120.5L556.3 34.5zM705.26 120.5L779.74 163.5L779.74 249.5L705.26 292.5L630.78 249.5L630.78 163.5zM705.26 378.5L779.74 421.5L779.74 507.5L705.26 550.5L630.78 507.5L630.78 421.5zM630.78 507.5L705.26 550.5L705.26 636.5L630.78 679.5L556.3 636.5L556.3 550.5zM779.74 -8.5L854.22 34.5L854.22 120.5L779.74 163.5L705.26 120.5L705.26 34.5zM779.74 249.5L854.22 292.5L854.22 378.5L779.74 421.5L705.26 378.5L705.26 292.5zM928.7 -8.5L1003.18 34.5L1003.18 120.5L928.7 163.5L854.22 120.5L854.22 34.5zM1003.18 120.5L1077.66 163.5L1077.66 249.5L1003.18 292.5L928.7 249.5L928.7 163.5zM1152.14 120.5L1226.62 163.5L1226.62 249.5L1152.14 292.5L1077.66 249.5L1077.66 163.5zM1077.66 249.5L1152.14 292.5L1152.14 378.5L1077.66 421.5L1003.18 378.5L1003.18 292.5zM1226.62 -8.5L1301.11 34.5L1301.11 120.5L1226.62 163.5L1152.14 120.5L1152.14 34.5zM1301.11 120.5L1375.59 163.5L1375.59 249.5L1301.11 292.5L1226.62 249.5L1226.62 163.5zM1301.11 378.5L1375.59 421.5L1375.59 507.5L1301.11 550.5L1226.62 507.5L1226.62 421.5zM1375.59 -8.5L1450.07 34.5L1450.07 120.5L1375.59 163.5L1301.11 120.5L1301.11 34.5zM1450.07 378.5L1524.55 421.5L1524.55 507.5L1450.07 550.5L1375.59 507.5L1375.59 421.5z" stroke="url(#SvgjsLinearGradient5958)" stroke-width="2"></path></g><defs><mask id="SvgjsMask5955"><rect width="1440" height="560" fill="#ffffff"></rect></mask><linearGradient x1="15.28%" y1="139.29%" x2="84.72%" y2="-39.29%" gradientUnits="userSpaceOnUse" id="SvgjsLinearGradient5956"><stop stop-color="#0e2a47" offset="0"></stop><stop stop-color="rgba(34, 136, 87, 1)" offset="1"></stop></linearGradient><linearGradient x1="0" y1="280" x2="1440" y2="280" gradientUnits="userSpaceOnUse" id="SvgjsLinearGradient5957"><stop stop-color="rgba(158, 0, 129, 1)" offset="0"></stop><stop stop-color="rgba(58, 58, 58, 0)" offset="0"></stop></linearGradient><linearGradient x1="0" y1="280" x2="1440" y2="280" gradientUnits="userSpaceOnUse" id="SvgjsLinearGradient5958"><stop stop-color="#0e2a47" offset="0"></stop><stop stop-color="rgba(134, 174, 197, 0.39)" offset="1"></stop></linearGradient></defs></svg>