<svg xmlns="http://www.w3.org/2000/svg" version="1.1" xmlns:xlink="http://www.w3.org/1999/xlink" xmlns:svgjs="http://svgjs.com/svgjs" width="1440" height="560" preserveAspectRatio="none" viewBox="0 0 1440 560"><g mask="url(&quot;#SvgjsMask1681&quot;)" fill="none"><rect width="1440" height="560" x="0" y="0" fill="url(#SvgjsLinearGradient1682)"></rect><path d="M236.31 246.3L335.91 303.8L335.91 418.8L236.31 476.3L136.72 418.8L136.72 303.8zM535.1 418.8L634.69 476.3L634.69 591.3L535.1 648.8L435.5 591.3L435.5 476.3zM634.69 -98.7L734.29 -41.2L734.29 73.8L634.69 131.3L535.1 73.8L535.1 -41.2zM933.48 418.8L1033.08 476.3L1033.08 591.3L933.48 648.8L833.89 591.3L833.89 476.3zM1132.67 418.8L1232.27 476.3L1232.27 591.3L1132.67 648.8L1033.08 591.3L1033.08 476.3zM1531.06 73.8L1630.65 131.3L1630.65 246.3L1531.06 303.8L1431.46 246.3L1431.46 131.3zM1431.46 246.3L1531.06 303.8L1531.06 418.8L1431.46 476.3L1331.86 418.8L1331.86 303.8z" stroke="#03305d" stroke-width="2"></path><path d="M224.81 246.3 a11.5 11.5 0 1 0 23 0 a11.5 11.5 0 1 0 -23 0zM324.41 303.8 a11.5 11.5 0 1 0 23 0 a11.5 11.5 0 1 0 -23 0zM324.41 418.8 a11.5 11.5 0 1 0 23 0 a11.5 11.5 0 1 0 -23 0zM224.81 476.3 a11.5 11.5 0 1 0 23 0 a11.5 11.5 0 1 0 -23 0zM125.22 418.8 a11.5 11.5 0 1 0 23 0 a11.5 11.5 0 1 0 -23 0zM125.22 303.8 a11.5 11.5 0 1 0 23 0 a11.5 11.5 0 1 0 -23 0zM523.6 418.8 a11.5 11.5 0 1 0 23 0 a11.5 11.5 0 1 0 -23 0zM623.19 476.3 a11.5 11.5 0 1 0 23 0 a11.5 11.5 0 1 0 -23 0zM623.19 591.3 a11.5 11.5 0 1 0 23 0 a11.5 11.5 0 1 0 -23 0zM523.6 648.8 a11.5 11.5 0 1 0 23 0 a11.5 11.5 0 1 0 -23 0zM424 591.3 a11.5 11.5 0 1 0 23 0 a11.5 11.5 0 1 0 -23 0zM424 476.3 a11.5 11.5 0 1 0 23 0 a11.5 11.5 0 1 0 -23 0zM623.19 -98.7 a11.5 11.5 0 1 0 23 0 a11.5 11.5 0 1 0 -23 0zM722.79 -41.2 a11.5 11.5 0 1 0 23 0 a11.5 11.5 0 1 0 -23 0zM722.79 73.8 a11.5 11.5 0 1 0 23 0 a11.5 11.5 0 1 0 -23 0zM623.19 131.3 a11.5 11.5 0 1 0 23 0 a11.5 11.5 0 1 0 -23 0zM523.6 73.8 a11.5 11.5 0 1 0 23 0 a11.5 11.5 0 1 0 -23 0zM523.6 -41.2 a11.5 11.5 0 1 0 23 0 a11.5 11.5 0 1 0 -23 0zM921.98 418.8 a11.5 11.5 0 1 0 23 0 a11.5 11.5 0 1 0 -23 0zM1021.58 476.3 a11.5 11.5 0 1 0 23 0 a11.5 11.5 0 1 0 -23 0zM1021.58 591.3 a11.5 11.5 0 1 0 23 0 a11.5 11.5 0 1 0 -23 0zM921.98 648.8 a11.5 11.5 0 1 0 23 0 a11.5 11.5 0 1 0 -23 0zM822.39 591.3 a11.5 11.5 0 1 0 23 0 a11.5 11.5 0 1 0 -23 0zM822.39 476.3 a11.5 11.5 0 1 0 23 0 a11.5 11.5 0 1 0 -23 0zM1121.17 418.8 a11.5 11.5 0 1 0 23 0 a11.5 11.5 0 1 0 -23 0zM1220.77 476.3 a11.5 11.5 0 1 0 23 0 a11.5 11.5 0 1 0 -23 0zM1220.77 591.3 a11.5 11.5 0 1 0 23 0 a11.5 11.5 0 1 0 -23 0zM1121.17 648.8 a11.5 11.5 0 1 0 23 0 a11.5 11.5 0 1 0 -23 0zM1519.56 73.8 a11.5 11.5 0 1 0 23 0 a11.5 11.5 0 1 0 -23 0zM1619.15 131.3 a11.5 11.5 0 1 0 23 0 a11.5 11.5 0 1 0 -23 0zM1619.15 246.3 a11.5 11.5 0 1 0 23 0 a11.5 11.5 0 1 0 -23 0zM1519.56 303.8 a11.5 11.5 0 1 0 23 0 a11.5 11.5 0 1 0 -23 0zM1419.96 246.3 a11.5 11.5 0 1 0 23 0 a11.5 11.5 0 1 0 -23 0zM1419.96 131.3 a11.5 11.5 0 1 0 23 0 a11.5 11.5 0 1 0 -23 0zM1519.56 418.8 a11.5 11.5 0 1 0 23 0 a11.5 11.5 0 1 0 -23 0zM1419.96 476.3 a11.5 11.5 0 1 0 23 0 a11.5 11.5 0 1 0 -23 0zM1320.36 418.8 a11.5 11.5 0 1 0 23 0 a11.5 11.5 0 1 0 -23 0zM1320.36 303.8 a11.5 11.5 0 1 0 23 0 a11.5 11.5 0 1 0 -23 0z" fill="#03305d"></path><path d="M106.25 305.41L208.44 364.41L208.44 482.41L106.25 541.41L4.06 482.41L4.06 364.41zM821.61 128.41L923.8 187.41L923.8 305.41L821.61 364.41L719.41 305.41L719.41 187.41zM821.61 482.41L923.8 541.41L923.8 659.41L821.61 718.41L719.41 659.41L719.41 541.41zM1128.19 -48.59L1230.38 10.41L1230.38 128.41L1128.19 187.41L1026 128.41L1026 10.41zM1128.19 305.41L1230.38 364.41L1230.38 482.41L1128.19 541.41L1026 482.41L1026 364.41zM1639.16 128.41L1741.35 187.41L1741.35 305.41L1639.16 364.41L1536.96 305.41L1536.96 187.41z" stroke="rgba(6, 80, 156, 0.93)" stroke-width="2"></path></g><defs><mask id="SvgjsMask1681"><rect width="1440" height="560" fill="#ffffff"></rect></mask><linearGradient x1="0%" y1="50%" x2="100%" y2="50%" gradientUnits="userSpaceOnUse" id="SvgjsLinearGradient1682"><stop stop-color="#0e2a47" offset="0"></stop><stop stop-color="rgba(0, 3, 51, 1)" offset="1"></stop></linearGradient></defs></svg>